<?xml version="1.0" encoding="UTF-8" standalone="no"?>
<svg
   version="1.1"
   width="771.7995"
   height="152.79601"
   id="svg27"
   viewBox="0 0 771.7995 152.79601"
   sodipodi:docname="48061ed9c7df1566bc146fddbdaf5f6a.cdr"
   xmlns:inkscape="http://www.inkscape.org/namespaces/inkscape"
   xmlns:sodipodi="http://sodipodi.sourceforge.net/DTD/sodipodi-0.dtd"
   xmlns="http://www.w3.org/2000/svg"
   xmlns:svg="http://www.w3.org/2000/svg">
  <defs
     id="defs31" />
  <sodipodi:namedview
     id="namedview29"
     pagecolor="#ffffff"
     bordercolor="#666666"
     borderopacity="1.0"
     inkscape:pageshadow="2"
     inkscape:pageopacity="0.0"
     inkscape:pagecheckerboard="0" />
  <g
     id="Layer1000"
     transform="translate(-226.1001,-319.602)">
    <g
       id="Layer1001">
      <path
         d="M 991.7096,319.602 H 442.7514 c -3.5838,0 -6.19,2.9322 -6.19,6.1901 v 140.4158 c 0,3.5839 2.9322,6.1901 6.19,6.1901 h 548.9582 c 3.5838,0 6.19,-2.9322 6.19,-6.1901 V 325.7921 c 0,-3.5839 -2.6062,-6.1901 -6.19,-6.1901 z"
         style="fill:#ffdd30;fill-rule:evenodd"
         id="path2" />
      <path
         d="M 420.9233,319.602 H 232.2901 c -3.5835,0 -6.19,2.6062 -6.19,6.1901 v 140.4158 c 0,3.5839 2.9322,6.1901 6.19,6.1901 h 188.6332 c 3.5838,0 6.19,-2.9322 6.19,-6.1901 V 325.7921 c 0.326,-3.5839 -2.6062,-6.1901 -6.19,-6.1901 z"
         style="fill:#0266ae;fill-rule:evenodd"
         id="path4" />
      <g
         id="Layer1002">
        <path
           d="m 619.9819,372.0542 c -20.1991,0 -36.8143,14.3348 -36.8143,35.5113 0,21.1764 16.6152,35.5112 36.8143,35.5112 20.1991,0 36.8143,-14.3348 36.8143,-35.5112 0,-20.8505 -16.6152,-35.5113 -36.8143,-35.5113 z m 0.3257,56.6877 c 0,0 0,0 0,0 -0.3257,0 -0.3257,0 -0.3257,0 -12.38,0 -20.8507,-9.4478 -20.8507,-20.8507 0,-11.4026 8.4704,-20.8508 20.8507,-20.8508 0,0 0,0 0.3257,0 0,0 0,0 0.3257,0 12.38,0 20.8508,9.4479 20.8508,20.8508 -0.3257,11.4029 -8.7965,20.8507 -21.1765,20.8507 z"
           style="fill:#0266ae;fill-rule:evenodd"
           id="path6" />
        <path
           d="m 567.8551,416.0362 c -6.19,7.1674 -15.3121,12.0543 -25.4117,12.0543 -18.2443,0 -33.2307,-14.9864 -33.2307,-33.2307 0,-18.2443 14.9864,-33.2308 33.2307,-33.2308 10.0996,0 19.2217,4.5609 25.086,11.7286 l 11.4027,-10.0995 c -9.1222,-10.4253 -22.4796,-16.9413 -37.1403,-16.9413 -27.0408,0 -49.1947,21.5022 -49.1947,48.2173 0,26.7148 22.1539,48.5429 49.1947,48.5429 14.9864,0 28.3438,-6.5157 37.466,-16.9412 z"
           style="fill:#0266ae;fill-rule:evenodd"
           id="path8" />
        <g
           id="Layer1003">
          <path
             d="m 779.2938,372.0542 c -20.1991,0 -36.8143,14.6605 -36.8143,35.5113 0,20.8507 0,64.5068 0,64.5068 h 15.9635 v -34.8596 c 5.8644,3.9095 13.3574,5.8643 20.8508,5.8643 20.1991,0 36.8143,-14.6605 36.8143,-35.5112 0,-20.8508 -16.6152,-35.5116 -36.8143,-35.5116 z m 0.3257,56.6877 c -0.3257,0 -0.3257,0 0,0 -0.3257,0 -0.3257,0 -0.3257,0 -12.38,0 -20.8508,-9.4478 -20.8508,-20.8507 0,-11.4026 8.4705,-20.8508 20.8508,-20.8508 0,0 0,0 0.3257,0 0.3257,0 0,0 0.3257,0 12.38,0 20.8508,9.4479 20.8508,20.8508 -0.6517,11.4029 -9.1222,20.8507 -21.1765,20.8507 z"
             style="fill:#0266ae;fill-rule:evenodd"
             id="path10" />
          <path
             d="m 699.8006,372.0542 c -20.1991,0 -36.8144,14.6605 -36.8144,35.5113 0,20.8507 0,64.5068 0,64.5068 h 15.9639 v -34.8596 c 5.8643,3.9095 13.3574,5.8643 20.8508,5.8643 20.199,0 36.8143,-14.6605 36.8143,-35.5112 0,-20.8508 -16.9412,-35.5116 -36.8146,-35.5116 z m 0,56.6877 c 0,0 0,0 0,0 -0.3257,0 -0.3257,0 -0.3257,0 -12.38,0 -20.8508,-9.4478 -20.8508,-20.8507 0,-11.4026 8.4705,-20.8508 20.8508,-20.8508 0,0 0,0 0.3257,0 0.3257,0 0,0 0.3257,0 12.38,0 20.8507,9.4479 20.8507,20.8508 -0.3257,11.4029 -8.7961,20.8507 -21.1764,20.8507 z"
             style="fill:#0266ae;fill-rule:evenodd"
             id="path12" />
          <path
             d="m 854.2258,372.0542 c -18.57,0 -34.2081,14.6605 -34.2081,35.5113 0,21.1764 15.6378,35.5112 34.2081,35.5112 11.077,0 23.1313,-3.5838 29.3213,-12.38 l -9.4479,-9.4478 c -4.2352,4.5609 -10.4252,7.493 -17.9186,7.493 -12.38,0 -20.5248,-7.1673 -20.5248,-17.5926 h 52.4522 c 0,-1.3031 0.3257,-2.6064 0.3257,-4.2352 0,-20.1991 -13.3574,-34.8599 -34.2079,-34.8599 z m -18.2443,28.6699 c 0,-6.19 8.1448,-14.9865 19.2217,-14.9865 7.1674,0 16.9412,5.5383 16.9412,14.9865 z"
             style="fill:#0266ae;fill-rule:evenodd"
             id="path14" />
          <path
             d="M 910.2619,407.5655 V 347.6199 H 894.298 v 59.9456 0 c 0,20.8507 16.2896,35.1855 36.1629,35.5112 v -14.6605 c -12.0543,0 -20.199,-9.4478 -20.199,-20.8507 z"
             style="fill:#0266ae;fill-rule:evenodd"
             id="path16" />
        </g>
      </g>
      <!-- Llave -->
      <path
         d="M 405.9371,395.5115 H 304.616 c 0.3257,-1.6291 0.6517,-3.2579 0.6517,-5.2127 0,-9.7738 -7.8191,-17.5926 -17.5927,-17.5926 -8.4704,0 -15.3121,5.8643 -17.2669,13.6831 -1.6291,-0.6517 -3.2578,-0.6517 -5.2126,-0.6517 -9.7739,0 -17.5926,7.8191 -17.5926,17.5926 0,9.7739 7.819,17.5927 17.5926,17.5927 1.6291,0 3.5838,-0.3257 5.2126,-0.6517 1.9548,7.8191 8.7965,13.6831 17.2669,13.6831 9.7739,0 17.5927,-7.8191 17.5927,-17.5927 0,-1.629 -0.3257,-3.5838 -0.6517,-5.2126 l 68.7417,3e-4 v 21.1765 h 8.1451 v -10.7512 h 7.8188 v 10.7512 h 8.1447 v -21.1765 h 8.1448 V 395.5115 Z M 287.6748,382.4798 c 4.2352,0 7.819,3.5838 7.819,7.819 0,4.2353 -3.5838,7.8191 -7.819,7.8191 -4.2353,0 -7.8191,-3.5838 -7.8191,-7.8191 -0.3257,-4.2355 3.2578,-7.819 7.8191,-7.819 z m -30.2987,20.8504 c 0,-4.2352 3.5839,-7.819 7.8191,-7.819 4.2352,0 7.8191,3.5838 7.8191,7.819 0,4.2353 -3.5839,7.8191 -7.8191,7.8191 -4.2352,0 -7.8191,-3.5838 -7.8191,-7.8191 z m 30.2987,20.5251 c -4.2353,0 -7.8191,-3.5838 -7.8191,-7.8191 0,-4.2352 3.5838,-7.819 7.8191,-7.819 4.2352,0 7.819,3.5838 7.819,7.819 0,4.2353 -3.5838,7.8191 -7.819,7.8191 z"
         style="fill:#ffdd30;fill-rule:evenodd"
         id="path20" />
      <g
         id="Layer1004">
        <path
           d="m 950.0083,435.9093 c 0,4.2353 -3.2578,7.4931 -7.4931,7.4931 -4.2352,0 -7.493,-3.2578 -7.493,-7.4931 0,-3.9095 3.2578,-7.1674 7.493,-7.1674 4.2353,0 7.4931,3.2582 7.4931,7.1674 z m -13.0317,0 c 0,3.2579 2.2805,5.8643 5.5384,5.8643 3.2578,0 5.5383,-2.6064 5.5383,-5.8643 0,-3.2578 -2.2805,-5.8643 -5.5383,-5.8643 -3.2579,3e-4 -5.5384,2.9325 -5.5384,5.8643 z m 4.5613,3.9096 h -1.6291 v -7.1674 c 0.6517,0 1.6291,-0.3257 2.9321,-0.3257 1.3031,0 1.9548,0.3257 2.6065,0.6517 0.3257,0.3257 0.6517,0.9773 0.6517,1.629 0,0.6517 -0.6517,1.3031 -1.6291,1.6291 v 0 c 0.6517,0.3257 0.9774,0.6517 1.3031,1.6291 0.3257,0.9773 0.3257,1.629 0.6517,1.9547 l -1.9548,-5e-4 c -0.3257,-0.3257 -0.3257,-0.9774 -0.6517,-1.6291 0,-0.6517 -0.6517,-1.3031 -1.629,-1.3031 h -0.6514 z m 0,-4.2353 h 0.6514 c 0.9773,0 1.629,-0.3257 1.629,-0.9774 0,-0.6516 -0.6517,-0.9773 -1.629,-0.9773 -0.3257,0 -0.6517,0 -0.9774,0 v 1.9547 z"
           style="fill:#0266ae;fill-rule:evenodd"
           id="path22" />
      </g>
    </g>
  </g>
</svg>
